<?xml version="1.0" encoding="UTF-8" standalone="no"?>
<!-- Created with Inkscape (http://www.inkscape.org/) -->

<svg
   width="650"
   height="400"
   viewBox="0 0 171.97916 105.83334"
   version="1.1"
   id="svg1"
   xml:space="preserve"
   xmlns="http://www.w3.org/2000/svg"
   xmlns:svg="http://www.w3.org/2000/svg"><defs
     id="defs1" /><g
     id="layer3"
     style="display:inline"
     transform="translate(2.3934924,-1.4180612)"><path
       id="path2"
       style="display:inline;opacity:1;fill:#ff0066;fill-rule:evenodd;stroke-width:0.763251"
       d="M 48.293339,16.502305 A 34.017377,37.205936 0 0 0 14.275778,53.708298 34.017377,37.205936 0 0 0 48.293339,90.914305 34.017377,37.205936 0 0 0 75.72939,75.7037 32.029157,33.765748 0 0 1 51.376872,87.537 32.029157,33.765748 0 0 1 19.347819,53.771281 32.029157,33.765748 0 0 1 51.376872,20.00556 32.029157,33.765748 0 0 1 76.201713,32.435317 34.017377,37.205936 0 0 0 48.293339,16.502305 Z" /><path
       id="path3"
       style="display:inline;opacity:1;fill:#ff0066;fill-rule:evenodd;stroke-width:0.4368"
       d="M 50.037936,18.370408 A 31.902765,34.726564 0 0 0 18.134973,53.09697 31.902765,34.726564 0 0 0 50.037936,87.82354 31.902765,34.726564 0 0 0 77.992818,69.829108 30.002171,28.508853 0 0 1 73.084591,75.222006 30.915555,33.649644 0 0 1 50.52111,85.868507 30.915555,33.649644 0 0 1 19.605684,52.218865 30.915555,33.649644 0 0 1 50.52111,18.569225 30.915555,33.649644 0 0 1 79.598922,40.791077 30.002171,28.508853 0 0 1 80.336344,42.224209 31.902765,34.726564 0 0 0 50.037936,18.370408 Z" /><path
       id="path6"
       style="opacity:1;fill:#ff0066;fill-rule:evenodd;stroke-width:0.305271"
       d="M 19.280631,53.033931 A 26.758497,28.156845 0 0 0 19.245505,54.468979 26.758497,28.156845 0 0 0 46.004118,82.62592 26.758497,28.156845 0 0 0 70.49974,65.801106 27.492279,28.203616 0 0 1 46.738082,79.819374 27.492279,28.203616 0 0 1 19.280631,53.033931 Z" /><path
       id="path8"
       style="opacity:1;fill:#ff0066;fill-rule:evenodd;stroke-width:0.430154"
       d="M 50.894945,26.175617 A 26.939139,26.722918 0 0 0 23.955806,52.898532 26.939139,26.722918 0 0 0 50.894945,79.621446 26.939139,26.722918 0 0 0 73.231869,67.83662 24.675959,24.422717 0 0 1 54.034195,76.915325 24.675959,24.422717 0 0 1 29.358235,52.492607 24.675959,24.422717 0 0 1 54.034195,28.0699 24.675959,24.422717 0 0 1 68.748286,32.887001 26.939139,26.722918 0 0 0 50.894945,26.175617 Z" /><path
       id="path9"
       style="opacity:1;fill:#ff0066;fill-rule:evenodd;stroke-width:0.287805"
       d="M 28.983923,53.340371 A 19.314582,16.536458 0 0 0 28.850598,55.279787 19.314582,16.536458 0 0 0 48.165181,71.816239 19.314582,16.536458 0 0 0 64.385896,64.256492 19.976042,17.4625 0 0 1 48.958932,70.625623 19.976042,17.4625 0 0 1 28.983923,53.340371 Z" /><path
       id="path10"
       style="opacity:1;fill:#ff0066;fill-rule:evenodd;stroke-width:0.366328"
       d="M 51.24303,36.305231 A 17.726652,17.446018 0 0 0 33.516464,53.751189 17.726652,17.446018 0 0 0 51.24303,71.197164 17.726652,17.446018 0 0 0 65.500557,64.118001 14.920322,15.247726 0 0 1 54.517248,69.045867 14.920322,15.247726 0 0 1 39.596712,53.798225 14.920322,15.247726 0 0 1 54.517248,38.550572 14.920322,15.247726 0 0 1 65.906734,43.948175 17.726652,17.446018 0 0 0 51.24303,36.305231 Z" /><text
       xml:space="preserve"
       style="font-style:normal;font-variant:normal;font-weight:bold;font-stretch:normal;font-size:22.8085px;line-height:0px;font-family:Serif;-inkscape-font-specification:'Serif, Bold';font-variant-ligatures:normal;font-variant-caps:normal;font-variant-numeric:normal;font-variant-east-asian:normal;text-align:start;letter-spacing:1.768px;word-spacing:-0.99681px;writing-mode:lr-tb;direction:ltr;text-anchor:start;opacity:1;fill:#ff0066;stroke:#28220b;stroke-width:3.23302;stroke-linejoin:bevel;stroke-dasharray:none"
       x="63.992439"
       y="55.050766"
       id="text11"
       transform="scale(0.86534219,1.1556122)"><tspan
         id="tspan11"
         style="font-style:normal;font-variant:normal;font-weight:bold;font-stretch:normal;font-size:22.8085px;line-height:0px;font-family:Serif;-inkscape-font-specification:'Serif, Bold';font-variant-ligatures:normal;font-variant-caps:normal;font-variant-numeric:normal;font-variant-east-asian:normal;letter-spacing:1.768px;word-spacing:-0.99681px;writing-mode:lr-tb;fill:#ff0066;stroke:#28220b;stroke-width:3.23302;stroke-dasharray:none;stroke-opacity:0"
         x="63.992439"
         y="55.050766">VELIYAM</tspan></text></g></svg>
