<?xml version="1.0" encoding="UTF-8" standalone="no"?>
<!-- Created with Inkscape (http://www.inkscape.org/) -->

<svg
   width="650"
   height="400"
   viewBox="0 0 171.97916 105.83334"
   version="1.1"
   id="svg1"
   xml:space="preserve"
   xmlns="http://www.w3.org/2000/svg"
   xmlns:svg="http://www.w3.org/2000/svg"><defs
     id="defs1" /><g
     id="layer2"
     transform="matrix(1.1378584,0,0,1.1325715,8.3949074,-7.1916775)"
     style="display:inline;opacity:1"><path
       id="path2-5"
       style="display:inline;fill:#ff0066;fill-rule:evenodd;stroke-width:0.672342"
       d="M 37.167546,19.665808 A 29.895967,32.85085 0 0 0 7.2714167,52.516708 29.895967,32.85085 0 0 0 37.167546,85.367618 29.895967,32.85085 0 0 0 61.279554,71.937468 28.148632,29.813348 0 0 1 39.87749,82.385638 28.148632,29.813348 0 0 1 11.72895,52.572318 28.148632,29.813348 0 0 1 39.87749,22.758988 28.148632,29.813348 0 0 1 61.694652,33.733798 29.895967,32.85085 0 0 0 37.167546,19.665808 Z" /><path
       id="path3-5"
       style="display:inline;fill:#ff0066;fill-rule:evenodd;stroke-width:0.384774"
       d="m 38.700774,21.315238 a 28.037553,30.661697 0 0 0 -28.037726,30.6617 28.037553,30.661697 0 0 0 28.037726,30.6617 28.037553,30.661697 0 0 0 24.56798,-15.88812 26.367227,25.171791 0 0 1 -4.313566,4.76164 27.169949,29.710834 0 0 1 -19.829779,9.40029 27.169949,29.710834 0 0 1 -27.169836,-29.71083 27.169949,29.710834 0 0 1 27.169836,-29.71083 27.169949,29.710834 0 0 1 25.55486,19.6207 26.367227,25.171791 0 0 1 0.648079,1.26538 28.037553,30.661697 0 0 0 -26.627574,-21.06163 z" /><path
       id="path6-1"
       style="fill:#ff0066;fill-rule:evenodd;stroke-width:0.268911"
       d="m 11.669902,51.921278 a 23.516544,24.860987 0 0 0 -0.03087,1.26707 23.516544,24.860987 0 0 0 23.516646,24.86107 23.516544,24.860987 0 0 0 21.52783,-14.85541 24.161424,24.902283 0 0 1 -20.88279,12.37738 24.161424,24.902283 0 0 1 -24.130816,-23.65011 z" /><path
       id="path8-7"
       style="fill:#ff0066;fill-rule:evenodd;stroke-width:0.37892"
       d="m 39.453952,28.206818 a 23.6753,23.594906 0 0 0 -23.6753,23.59491 23.6753,23.594906 0 0 0 23.6753,23.5949 23.6753,23.594906 0 0 0 19.630671,-10.40537 21.686318,21.563952 0 0 1 -16.87176,8.01601 21.686318,21.563952 0 0 1 -21.686319,-21.56395 21.686318,21.563952 0 0 1 21.686319,-21.56395 21.686318,21.563952 0 0 1 12.93139,4.25325 23.6753,23.594906 0 0 0 -15.690301,-5.9258 z" /><path
       id="path9-1"
       style="fill:#ff0066;fill-rule:evenodd;stroke-width:0.253525"
       d="m 20.197582,52.191848 a 16.974504,14.600807 0 0 0 -0.117172,1.7124 16.974504,14.600807 0 0 0 16.974505,14.6008 16.974504,14.600807 0 0 0 14.255478,-6.67485 17.555824,15.418453 0 0 1 -13.557895,5.6236 17.555824,15.418453 0 0 1 -17.554916,-15.26195 z" /><path
       id="path10-1"
       style="fill:#ff0066;fill-rule:evenodd;stroke-width:0.322696"
       d="m 39.759864,37.150728 a 15.578961,15.4039 0 0 0 -15.578886,15.40385 15.578961,15.4039 0 0 0 15.578886,15.40386 15.578961,15.4039 0 0 0 12.530142,-6.25052 13.112635,13.462926 0 0 1 -9.652615,4.35104 13.112635,13.462926 0 0 1 -13.112823,-13.46285 13.112635,13.462926 0 0 1 13.112823,-13.46286 13.112635,13.462926 0 0 1 10.009581,4.76579 15.578961,15.4039 0 0 0 -12.887108,-6.74831 z" /><text
       xml:space="preserve"
       style="font-style:normal;font-variant:normal;font-weight:normal;font-stretch:normal;font-size:21.2568px;font-family:Kavivanar;-inkscape-font-specification:'Kavivanar, Normal';font-variant-ligatures:normal;font-variant-caps:normal;font-variant-numeric:normal;font-variant-east-asian:normal;text-align:start;writing-mode:lr-tb;direction:ltr;text-anchor:start;fill:#ff0066;stroke:#ff0066;stroke-width:0.458467;stroke-linejoin:bevel;stroke-opacity:0.952941"
       x="41.985565"
       y="62.400116"
       id="text1"
       transform="scale(1.0395977,0.96191055)"><tspan
         id="tspan1"
         style="font-style:normal;font-variant:normal;font-weight:normal;font-stretch:normal;font-size:21.2568px;font-family:Kavivanar;-inkscape-font-specification:'Kavivanar, Normal';font-variant-ligatures:normal;font-variant-caps:normal;font-variant-numeric:normal;font-variant-east-asian:normal;fill:#ff0066;stroke:#ff0066;stroke-width:0.458467;stroke-opacity:0.952941"
         x="41.985565"
         y="62.400116">வெளியம்</tspan></text></g></svg>
